<svg width="548" height="240" viewBox="0 0 548 240" fill="none" xmlns="http://www.w3.org/2000/svg">
<path d="M84 108H156L180 180H60L84 108Z" fill="#141414"/>
<path d="M84 108H156L180 180H60L84 108Z" fill="#141414"/>
<path d="M102 72L156 84L180 156L78 144L102 72Z" fill="#A3A3A3"/>
<path d="M129 24L156 60L180 132L105 96L129 24Z" fill="#CCCCCC"/>
<path d="M241.812 152.872C239.208 152.872 237.72 151.291 237.72 148.966C237.72 148.129 237.72 147.292 238.65 144.688L256.227 94.189C258.18 88.609 259.947 87.028 264.318 87.028H264.783C269.154 87.028 270.921 88.609 272.874 94.189L290.544 144.595C291.474 147.199 291.474 148.036 291.474 148.78C291.474 151.198 289.986 152.872 287.196 152.872C285.15 152.872 283.383 151.849 282.174 148.408L277.71 135.202H251.112L246.741 148.408C245.532 151.942 243.765 152.872 241.812 152.872ZM253.623 127.762H275.199L264.318 95.398L253.623 127.762ZM301.911 152.965C299.958 152.965 298.191 151.384 298.191 149.338C298.191 148.036 298.656 146.548 300.144 144.688L312.699 128.692L301.167 114.091C299.586 112.138 299.214 110.836 299.214 109.627C299.214 107.488 300.888 105.628 303.12 105.628C304.98 105.628 306.468 106.651 308.235 109.069L318.372 122.926L328.788 108.976C330.555 106.558 332.136 105.535 333.903 105.535C335.856 105.535 337.623 107.023 337.623 109.255C337.623 110.464 337.158 111.859 335.391 114.091L323.952 128.692L336.414 144.595C337.902 146.455 338.367 147.664 338.367 148.873C338.367 151.198 336.693 152.965 334.461 152.965C332.601 152.965 331.02 152.035 328.788 148.966L318.279 134.551L307.491 148.966C305.073 152.128 303.585 152.965 301.911 152.965ZM351.298 152.872C348.601 152.872 347.02 151.105 347.02 148.036V110.464C347.02 107.395 348.601 105.628 351.298 105.628C354.088 105.628 355.576 107.395 355.576 110.464V148.036C355.576 151.105 354.088 152.872 351.298 152.872ZM351.298 98.839C348.136 98.839 345.625 96.328 345.625 93.259C345.625 90.19 348.136 87.865 351.298 87.865C354.46 87.865 356.878 90.19 356.878 93.259C356.878 96.328 354.46 98.839 351.298 98.839ZM386.82 153.895C372.963 153.895 364.221 143.2 364.221 129.25C364.221 115.3 372.963 104.605 386.82 104.605C400.863 104.605 409.605 115.3 409.605 129.25C409.605 143.2 400.863 153.895 386.82 153.895ZM386.82 146.083C395.655 146.083 400.863 139.108 400.863 129.25C400.863 119.392 395.655 112.417 386.82 112.417C378.078 112.417 372.963 119.392 372.963 129.25C372.963 139.108 378.078 146.083 386.82 146.083ZM422.273 152.872C419.576 152.872 417.995 151.105 417.995 148.036V110.371C417.995 107.302 419.576 105.535 422.273 105.535C424.97 105.535 426.551 107.302 426.551 110.371V113.905C429.062 107.86 433.526 104.605 439.664 104.605C445.895 104.605 450.638 108.139 452.777 113.998C454.823 108.232 459.659 104.605 466.262 104.605C475.748 104.605 481.328 111.301 481.328 122.089V148.036C481.328 151.105 479.747 152.872 477.05 152.872C474.26 152.872 472.772 151.105 472.772 148.036V123.298C472.772 115.765 469.703 112.138 463.937 112.138C458.171 112.138 453.986 116.416 453.893 122.461V148.036C453.893 151.105 452.405 152.872 449.708 152.872C447.011 152.872 445.43 151.105 445.43 148.036V122.461C445.43 115.765 442.082 112.138 436.409 112.138C430.829 112.138 426.644 117.16 426.551 124.135V148.036C426.551 151.105 425.063 152.872 422.273 152.872Z" fill="black"/>
</svg>
